# AST/ASF file generated using VICON BodyLanguage
# -----------------------------------------------
:version 1.10
:name VICON
:units
  mass 1.0
  length 0.45
  angle deg
:documentation
   .ast/.asf automatically generated from VICON data using
   VICON BodyBuilder and BodyLanguage model FoxedUp or BRILLIANT.MOD
:root
   order TX TY TZ RX RY RZ
   axis XYZ
   position 0 0 0  
   orientation 0 0 0 
:bonedata
  begin
     id 1 
     name lhipjoint
     direction 0.646657 -0.683706 0.338203 
     length 2.4948 
     axis 0 0 0  XYZ
  end
  begin
     id 2 
     name lfemur
     direction 0.34202 -0.939693 0  
     length 6.79491  
     axis 0 0 20  XYZ
    dof rx ry rz
    limits (-160.0 20.0)
           (-70.0 70.0)
           (-60.0 70.0)
  end
  begin
     id 3 
     name ltibia
     direction 0.34202 -0.939693 0   
     length 7.56807   
     axis 0 0 20   XYZ
    dof rx
    limits (-10.0 170.0)
  end
  begin
     id 4 
     name lfoot
     direction 0.0679796 -0.186772 0.980048   
     length 2.53018   
     axis -90 7.62852e-016 20   XYZ
    dof rx rz
    limits (-45.0 90.0)
           (-70.0 20.0)
  end
  begin
     id 5 
     name ltoes
     direction 1.53625e-011 -4.21881e-011 1   
     length 1.26912   
     axis -90 7.62852e-016 20   XYZ
    dof rx
    limits (-90.0 20.0)
  end
  begin
     id 6 
     name rhipjoint
     direction -0.618868 -0.704065 0.348274   
     length 2.42265  
     axis 0 0 0  XYZ 
  end
  begin
     id 7 
     name rfemur
     direction -0.34202 -0.939693 0   
     length 6.73814   
     axis 0 0 -20   XYZ
    dof rx ry rz
    limits (-160.0 20.0)
           (-70.0 70.0)
           (-70.0 60.0)
  end
  begin
     id 8 
     name rtibia
     direction -0.34202 -0.939693 0   
     length 7.66799   
     axis 0 0 -20   XYZ
    dof rx
    limits (-10.0 170.0)
 end
 begin
     id 9 
     name rfoot
     direction -0.0727352 -0.199838 0.977125   
     length 2.57224  
     axis -90 -7.62852e-016 -20   XYZ
    dof rx rz
    limits (-45.0 90.0)
           (-20.0 70.0)
  end
  begin
     id 10 
     name rtoes
     direction -1.53501e-011 -4.21858e-011 1   
     length 1.28858   
     axis -90 -7.62852e-016 -20   XYZ
    dof rx
    limits (-90.0 20.0)
  end
  begin
     id 11 
     name lowerback
     direction -0.0172471 0.995767 -0.0902851   
     length 2.20206   
     axis 0 0 0   XYZ
    dof rx ry rz
    limits (-20.0 45.0)
           (-30.0 30.0)
           (-30.0 30.0)
  end
  begin
     id 12 
     name upperback
     direction -0.000110737 0.999714 0.0239043   
     length 2.19523   
     axis 0 0 0   XYZ
    dof rx ry rz
    limits (-20.0 45.0)
           (-30.0 30.0)
           (-30.0 30.0)
  end
  begin
     id 13 
     name thorax
     direction 0.00704869 0.997783 0.0661741   
     length 2.21977   
     axis 0 0 0   XYZ
    dof rx ry rz
    limits (-20.0 45.0)
           (-30.0 30.0)
           (-30.0 30.0)
  end
  begin
     id 14 
     name lowerneck
     direction -0.00407501 0.995527 0.0943846   
     length 1.83142   
     axis 0 0 0   XYZ
    dof rx ry rz
    limits (-20.0 45.0)
           (-30.0 30.0)
           (-30.0 30.0)
  end
  begin
     id 15 
     name upperneck
     direction 0.0640586 0.986486 -0.150807   
     length 1.84616   
     axis 0 0 0   XYZ
    dof rx ry rz
    limits (-20.0 45.0)
           (-30.0 30.0)
           (-30.0 30.0)
  end
  begin
     id 16
     name head
     direction 0.0188017 0.99791 -0.0618239  
     length 1.85932  
     axis 0 0 0   XYZ
    dof rx ry rz
    limits (-20.0 45.0)
           (-30.0 30.0)
           (-30.0 30.0)
  end
  begin
     id 17 
     name lclavicle
     direction 0.976074 0.206905 0.066852  
     length 3.81043  
     axis 0 0 0   XYZ
    dof ry rz
    limits (-20.0 10.0)
           (0.0 20.0)
  end
  begin
     id 18 
     name lhumerus
     direction 1 -4.48971e-011 1.86916e-027   
     length 5.37587   
     axis 180 -30 -90   XYZ
    dof rx ry rz
    limits (-60.0 90.0)
           (-90.0 90.0)
           (-90.0 90.0)
  end
  begin
     id 19
     name lradius
     direction 1 -4.48968e-011 1.69187e-027   
     length 3.35977   
     axis 180 -30 -90   XYZ
    dof rx
    limits (-10.0 170.0)
  end
  begin
     id 20
     name lwrist
     direction 1 -4.48968e-011 5.8978e-027   
     length 1.67988   
     axis -3.27506e-015 90 90   XYZ
    dof ry
    limits (-180.0 0.0)
 end
  begin
     id 21 
     name lhand
     direction 1 -4.49028e-011 1.18071e-026   
     length 0.561859   
     axis -7.52654e-015 90 90   XYZ
    dof rx rz
    limits (-90.0 90.0)
           (-45.0 45.0)
  end
  begin
     id 22 
     name lfingers
     direction 1 -4.48927e-011 2.35758e-026   
     length 0.452985   
     axis -1.50534e-014 90 90   XYZ
    dof rx
    limits (0.0 90.0)
  end
  begin
     id 23
     name lthumb
     direction 0.707107 -6.34898e-011 0.707107   
     length 0.650399   
     axis -90 45 5.69224e-014   XYZ
    dof rx rz
    limits (-45.0 45.0)
           (-45.0 45.0)
  end
  begin
     id 24 
     name rclavicle
     direction -0.988403 0.151789 0.00439714   
     length 3.6942  
     axis 0 0 0   XYZ 
    dof ry rz
    limits (-10.0 20.0)
           (-20.0 0.0)
  end
  begin
     id 25 
     name rhumerus
     direction -1 -4.48978e-011 1.62495e-027  
     length 5.22819   
     axis 180 30 90   XYZ
    dof rx ry rz
    limits (-90.0 60.0)
           (-90.0 90.0)
           (-90.0 90.0)
  end
  begin
     id 26 
     name rradius
     direction -1 -4.48961e-011 3.47796e-027   
     length 3.40764   
     axis 180 30 90   XYZ
    dof rx
    limits (-10.0 170.0)
  end
  begin
     id 27 
     name rwrist
     direction -1 -4.48949e-011 5.89602e-027   
     length 1.70382   
     axis -3.27506e-015 -90 -90   XYZ
    dof ry
    limits (-180.0 0.0)
  end
  begin
     id 28
     name rhand
     direction -1 -4.48977e-011 1.17973e-026   
     length 0.583255   
     axis -7.52654e-015 -90 -90   XYZ
    dof rx rz
    limits (-90.0 90.0)
           (-45.0 45.0)
  end
  begin
     id 29
     name rfingers
     direction -1 -4.49099e-011 2.36408e-026   
     length 0.470235   
     axis -1.50534e-014 -90 -90   XYZ
    dof rx
    limits (0.0 90.0)
  end
  begin
     id 30
     name rthumb
     direction -0.707107 -6.35011e-011 0.707107   
     length 0.675167   
     axis -90 -45 -5.69224e-014   XYZ
    dof rx rz
    limits (-45.0 45.0)
           (-45.0 45.0)
  end
:hierarchy
  begin
    root lhipjoint rhipjoint lowerback
    lhipjoint lfemur
    lfemur ltibia
    ltibia lfoot
    lfoot ltoes
    rhipjoint rfemur
    rfemur rtibia
    rtibia rfoot
    rfoot rtoes
    lowerback upperback
    upperback thorax
    thorax lowerneck lclavicle rclavicle
    lowerneck upperneck
    upperneck head
    lclavicle lhumerus
    lhumerus lradius
    lradius lwrist
    lwrist lhand lthumb
    lhand lfingers
    rclavicle rhumerus
    rhumerus rradius
    rradius rwrist
    rwrist rhand rthumb
    rhand rfingers
  end

#!OML:ASF G:\JayActor3\Patient Classification 1\Patient 1\Session 2\male.ASF
:FULLY-SPECIFIED
:DEGREES
1290
root -37.2314 16.8741 -2.92854 1644.09 89.345 -1958.54
lowerback -2.07104 0.416838 -0.554892
upperback 3.9476 0.666481 -0.763166
thorax 5.24343 0.345576 -0.433047
lowerneck -9.45978 -0.415525 -0.146228
upperneck 6.51007 -0.762037 2.71587
head 3.83374 -0.247681 0.883449
rclavicle 6.4605e-016 2.38542e-015
rhumerus -28.2956 -2.23956 -87.5124
rradius 31.1633
rwrist -6.46484
rhand -22.5294 4.92826
rfingers 7.12502
rthumb 3.89755 -25.0158
lclavicle 6.4605e-016 2.38542e-015
lhumerus -29.4608 13.5436 80.452
lradius 22.016
lwrist 3.98433
lhand -18.1827 15.468
lfingers 7.12502
lthumb 8.094 45.293
rfemur -10.4995 3.64578 21.1224
rtibia 32.107
rfoot -25.9036 -9.66903
rtoes 19.1915
lfemur -12.1258 -1.92399 -17.6421
ltibia 22.6294
lfoot -10.1204 -26.9079
ltoes -10.0332
1291
root -37.2409 16.8769 -2.90912 1638.67 89.1153 -1964.05
lowerback -2.08906 0.426681 -0.459438
upperback 3.92976 0.671938 -0.712053
thorax 5.23539 0.350629 -0.433203
lowerneck -9.45517 -0.483355 -0.173263
upperneck 6.41524 -0.85536 2.81873
head 3.80207 -0.290346 0.916229
rclavicle -4.96962e-015 -9.54166e-015
rhumerus -28.1683 -2.33822 -87.4635
rradius 30.9283
rwrist -6.29596
rhand -22.5825 4.93557
rfingers 7.12502
rthumb 3.84624 -25.0095
lclavicle -4.96962e-015 -9.54166e-015
lhumerus -29.6607 13.5028 80.5701
lradius 22.1874
lwrist 4.08499
lhand -18.1153 15.452
lfingers 7.12502
lthumb 8.15906 45.2745
rfemur -10.5579 3.39933 21.1844
rtibia 31.9977
rfoot -25.8475 -9.65065
rtoes 19.2431
lfemur -12.4149 -2.17087 -17.5959
ltibia 22.8413
lfoot -9.95046 -26.6734
ltoes -9.58098
1292
root -37.2506 16.8793 -2.8896 1635.03 88.8556 -1967.76
lowerback -2.08614 0.424461 -0.378442
upperback 3.91611 0.661836 -0.656634
thorax 5.2195 0.347391 -0.421986
lowerneck -9.45701 -0.547452 -0.206123
upperneck 6.31872 -0.943449 2.93075
head 3.77134 -0.330139 0.953461
rclavicle -1.00386e-014 5.96354e-016
rhumerus -28.0373 -2.45046 -87.4062
rradius 30.6838
rwrist -6.12603
rhand -22.6239 4.94531
rfingers 7.12502
rthumb 3.80631 -25.0004
lclavicle -1.00386e-014 5.96354e-016
lhumerus -29.8551 13.455 80.6989
lradius 22.372
lwrist 4.17396
lhand -18.0458 15.4516
lfingers 7.12502
lthumb 8.22614 45.2714
rfemur -10.604 3.14802 21.2493
rtibia 31.9003
rfoot -25.8139 -9.65075
rtoes 19.3153
lfemur -12.7006 -2.40377 -17.5552
ltibia 23.0643
lfoot -9.81725 -26.4425
ltoes -9.14064
1293
root -37.2612 16.8816 -2.87068 1632.79 88.5997 -1970.09
lowerback -2.06991 0.422426 -0.297731
upperback 3.8964 0.651873 -0.602064
thorax 5.18966 0.344207 -0.411618
lowerneck -9.44585 -0.609026 -0.243436
upperneck 6.20851 -1.02794 3.05633
head 3.73355 -0.367879 0.996136
rclavicle -3.926e-015 8.94531e-015
rhumerus -27.9105 -2.57563 -87.345
rradius 30.434
rwrist -5.96226
rhand -22.6544 4.9541
rfingers 7.12502
rthumb 3.77683 -24.9922
lclavicle -3.926e-015 8.94531e-015
lhumerus -30.0496 13.3937 80.8328
lradius 22.5696
lwrist 4.2544
lhand -17.9774 15.4452
lfingers 7.12502
lthumb 8.29213 45.2624
rfemur -10.6659 2.89369 21.3101
rtibia 31.8154
rfoot -25.7772 -9.64381
rtoes 19.3866
lfemur -13.0014 -2.61001 -17.522
ltibia 23.2993
lfoot -9.72797 -26.1825
ltoes -8.7768
1294
root -37.2725 16.8836 -2.85244 1631.3 88.3488 -1971.66
lowerback -2.03976 0.422511 -0.214285
upperback 3.87097 0.644654 -0.549878
thorax 5.14596 0.342517 -0.405215
lowerneck -9.41551 -0.666669 -0.280447
upperneck 6.08288 -1.10719 3.19337
head 3.68684 -0.402832 1.04277
rclavicle 4.17448e-015 5.36719e-015
rhumerus -27.7912 -2.72521 -87.279
rradius 30.1774
rwrist -5.79419
rhand -22.6702 4.9703
rfingers 7.12502
rthumb 3.76159 -24.9762
lclavicle 4.17448e-015 5.36719e-015
lhumerus -30.2461 13.3192 80.9679
lradius 22.7768
lwrist 4.31817
lhand -17.913 15.4452
lfingers 7.12502
lthumb 8.35434 45.26
rfemur -10.7368 2.64568 21.3688
rtibia 31.742
rfoot -25.7422 -9.63222
rtoes 19.4504
lfemur -13.3082 -2.78809 -17.4964
ltibia 23.5437
lfoot -9.69252 -25.8866
ltoes -8.5177
1295
root -37.2836 16.8854 -2.835 1630.13 88.1107 -1972.91
lowerback -2.00791 0.426391 -0.133959
upperback 3.84562 0.642973 -0.500928
thorax 5.10145 0.343515 -0.400082
lowerneck -9.3607 -0.723964 -0.311161
upperneck 5.93368 -1.18574 3.33324
head 3.62727 -0.437679 1.08904
rclavicle -9.93923e-017 5.96354e-016
rhumerus -27.6777 -2.88721 -87.2118
rradius 29.9189
rwrist -5.62693
rhand -22.6771 4.99207
rfingers 7.12502
rthumb 3.75493 -24.9546
lclavicle -9.93923e-017 5.96354e-016
lhumerus -30.4408 13.2337 81.1044
lradius 22.9941
lwrist 4.36698
lhand -17.8437 15.4522
lfingers 7.12502
lthumb 8.42114 45.2643
rfemur -10.8113 2.40742 21.4195
rtibia 31.6795
rfoot -25.7138 -9.60916
rtoes 19.5316
lfemur -13.613 -2.93254 -17.4856
ltibia 23.7967
lfoot -9.70415 -25.5489
ltoes -8.41733
1296
root -37.2937 16.8868 -2.81837 1629.05 87.887 -1974.06
lowerback -1.98159 0.433147 -0.0645992
upperback 3.83482 0.646327 -0.454067
thorax 5.0753 0.346772 -0.390539
lowerneck -9.31124 -0.77969 -0.335653
upperneck 5.77596 -1.26216 3.47153
head 3.56598 -0.47156 1.13375
rclavicle 1.17283e-014 -2.18663e-015
rhumerus -27.5533 -3.05705 -87.1431
rradius 29.6533
rwrist -5.4515
rhand -22.6777 5.02623
rfingers 7.12502
rthumb 3.75439 -24.9204
lclavicle 1.17283e-014 -2.18663e-015
lhumerus -30.6128 13.1531 81.245
lradius 23.2085
lwrist 4.3976
lhand -17.7841 15.4686
lfingers 7.12502
lthumb 8.47872 45.2784
rfemur -10.8704 2.17633 21.4583
rtibia 31.6264
rfoot -25.6899 -9.57363
rtoes 19.6069
lfemur -13.8935 -3.04043 -17.4963
ltibia 24.0547
lfoot -9.77059 -25.1655
ltoes -8.50846
1297
root -37.3033 16.8876 -2.80224 1628.09 87.6634 -1975.07
lowerback -1.95483 0.439645 -0.00369835
upperback 3.83236 0.650093 -0.407667
thorax 5.05756 0.350016 -0.376682
lowerneck -9.26081 -0.836136 -0.347665
upperneck 5.61714 -1.3399 3.60087
head 3.50422 -0.506352 1.17316
rclavicle -2.35808e-014 -3.18055e-015
rhumerus -27.4269 -3.23841 -87.0715
rradius 29.3831
rwrist -5.2679
rhand -22.6724 5.06565
rfingers 7.12502
rthumb 3.75944 -24.8809
lclavicle -2.35808e-014 -3.18055e-015
lhumerus -30.7726 13.0738 81.3859
lradius 23.4213
lwrist 4.41674
lhand -17.7293 15.4727
lfingers 7.12502
lthumb 8.53159 45.2803
rfemur -10.9171 1.95612 21.4944
rtibia 31.5823
rfoot -25.6778 -9.53885
rtoes 19.7021
lfemur -14.156 -3.11602 -17.5213
ltibia 24.3176
lfoot -9.88991 -24.7409
ltoes -8.76667
1298
root -37.311 16.888 -2.78704 1627.09 87.4627 -1976.1
lowerback -1.93707 0.450385 0.0435824
upperback 3.8435 0.660689 -0.363343
thorax 5.05914 0.356319 -0.356766
lowerneck -9.22753 -0.892124 -0.356636
upperneck 5.47143 -1.41723 3.72654
head 3.4506 -0.540843 1.21097
rclavicle 2.03754e-015 -1.49089e-015
rhumerus -27.2965 -3.41648 -86.9978
rradius 29.1091
rwrist -5.07888
rhand -22.6626 5.10445
rfingers 7.12502
rthumb 3.76895 -24.842
lclavicle 2.03754e-015 -1.49089e-015
lhumerus -30.9194 13.0148 81.5237
lradius 23.631
lwrist 4.41993
lhand -17.6784 15.4751
lfingers 7.12502
lthumb 8.58069 45.2807
rfemur -10.9413 1.74541 21.5151
rtibia 31.5465
rfoot -25.6689 -9.49227
rtoes 19.7838
lfemur -14.3834 -3.1532 -17.5724
ltibia 24.586
lfoot -10.0739 -24.2603
ltoes -9.18296
1299
root -37.318 16.8881 -2.77246 1626.17 87.2612 -1977.04
lowerback -1.91692 0.460353 0.084805
upperback 3.85464 0.670676 -0.321201
thorax 5.0593 0.362151 -0.335773
lowerneck -9.20017 -0.949545 -0.356678
upperneck 5.34133 -1.4976 3.85085
head 3.40377 -0.576538 1.24669
rclavicle 1.98785e-015 5.86415e-015
rhumerus -27.1753 -3.59476 -86.9251
rradius 28.8379
rwrist -4.88997
rhand -22.6525 5.13461
rfingers 7.12502
rthumb 3.77868 -24.8116
lclavicle 1.98785e-015 5.86415e-015
lhumerus -31.06 12.9606 81.6542
lradius 23.8323
lwrist 4.42821
lhand -17.639 15.4664
lfingers 7.12502
lthumb 8.61876 45.2705
rfemur -10.9604 1.53637 21.5319
rtibia 31.5174
rfoot -25.6638 -9.45035
rtoes 19.8513
lfemur -14.6039 -3.16487 -17.638
ltibia 24.8656
lfoot -10.3019 -23.7308
ltoes -9.68647
1300
root -37.3247 16.8879 -2.75862 1625.32 87.0571 -1977.92
lowerback -1.89439 0.46622 0.118816
upperback 3.86275 0.675444 -0.278627
thorax 5.05481 0.365077 -0.310667
lowerneck -9.18654 -1.00328 -0.362907
upperneck 5.23397 -1.57332 3.9824
head 3.36784 -0.609408 1.28641
rclavicle -5.40446e-015 2.98177e-015
rhumerus -27.0629 -3.76336 -86.8507
rradius 28.5719
rwrist -4.70028
rhand -22.6388 5.15422
rfingers 7.12502
rthumb 3.79189 -24.7918
lclavicle -5.40446e-015 2.98177e-015
lhumerus -31.1968 12.9239 81.7777
lradius 24.0247
lwrist 4.44144
lhand -17.6085 15.4691
lfingers 7.12502
lthumb 8.64816 45.272
rfemur -10.9804 1.32241 21.5424
rtibia 31.4928
rfoot -25.6588 -9.41195
rtoes 19.9073
lfemur -14.8242 -3.1677 -17.7181
ltibia 25.1599
lfoot -10.5843 -23.1375
ltoes -10.2206
1301
root -37.3307 16.8877 -2.74583 1624.73 86.8533 -1978.54
lowerback -1.88019 0.466302 0.157213
upperback 3.8699 0.672026 -0.231371
thorax 5.05401 0.363982 -0.283622
lowerneck -9.1932 -1.05107 -0.376638
upperneck 5.14237 -1.64099 4.11957
head 3.34151 -0.63785 1.32999
rclavicle -2.70844e-015 4.77083e-015
rhumerus -26.9503 -3.90486 -86.7779
rradius 28.3129
rwrist -4.52065
rhand -22.626 5.16131
rfingers 7.12502
rthumb 3.8043 -24.7845
lclavicle -2.70844e-015 4.77083e-015
lhumerus -31.3208 12.9233 81.8916
lradius 24.2018
lwrist 4.45964
lhand -17.5889 15.4801
lfingers 7.12502
lthumb 8.66707 45.2822
rfemur -11.0067 1.09489 21.5557
rtibia 31.4698
rfoot -25.6517 -9.36028
rtoes 19.9754
lfemur -15.0558 -3.16393 -17.8012
ltibia 25.4769
lfoot -10.9207 -22.4814
ltoes -10.7763
1302
root -37.3361 16.8875 -2.73424 1624.41 86.6535 -1978.89
lowerback -1.86632 0.466136 0.207641
upperback 3.86876 0.667486 -0.182821
thorax 5.04483 0.362671 -0.2621
lowerneck -9.20429 -1.09652 -0.38406
upperneck 5.06805 -1.7064 4.25224
head 3.322 -0.664989 1.37121
rclavicle -1.83876e-015 9.54166e-015
rhumerus -26.8556 -4.04077 -86.705
rradius 28.0653
rwrist -4.3421
rhand -22.6102 5.16137
rfingers 7.12502
rthumb 3.81957 -24.7841
lclavicle -1.83876e-015 9.54166e-015
lhumerus -31.4443 12.9397 81.993
lradius 24.3637
lwrist 4.48792
lhand -17.5833 15.5082
lfingers 7.12502
lthumb 8.67243 45.3101
rfemur -11.0368 0.855875 21.5745
rtibia 31.445
rfoot -25.6381 -9.29407
rtoes 20.0417
lfemur -15.2973 -3.15483 -17.8845
ltibia 25.8182
lfoot -11.2864 -21.7653
ltoes -11.3193
1303
root -37.3412 16.8873 -2.72383 1624.4 86.456 -1978.95
lowerback -1.85322 0.467348 0.27608
upperback 3.85328 0.66359 -0.132735
thorax 5.02131 0.362162 -0.249129
lowerneck -9.1847 -1.14143 -0.39294
upperneck 4.98708 -1.77069 4.3934
head 3.29453 -0.691712 1.41553
rclavicle 1.04176e-014 -1.13059e-014
rhumerus -26.79 -4.17724 -86.6312
rradius 27.8337
rwrist -4.16681
rhand -22.5963 5.15597
rfingers 7.12502
rthumb 3.83295 -24.7893
lclavicle 1.04176e-014 -1.13059e-014
lhumerus -31.5799 12.957 82.0845
lradius 24.5196
lwrist 4.53149
lhand -17.5891 15.6
lfingers 7.12502
lthumb 8.66686 45.4021
rfemur -11.076 0.60776 21.605
rtibia 31.4153
rfoot -25.6173 -9.21967
rtoes 20.1083
lfemur -15.5575 -3.13809 -17.9619
ltibia 26.1841
lfoot -11.6728 -20.9943
ltoes -11.8458
1304
root -37.3453 16.8873 -2.71475 1624.56 86.266 -1978.83
lowerback -1.84321 0.469776 0.355662
upperback 3.83215 0.660706 -0.0817873
thorax 4.99375 0.362483 -0.241465
lowerneck -9.17043 -1.18646 -0.401937
upperneck 4.92212 -1.83575 4.53743
head 3.27389 -0.718445 1.46094
rclavicle 8.05311e-015 1.35422e-015
rhumerus -26.7434 -4.31238 -86.557
rradius 27.6168
rwrist -3.99344
rhand -22.5862 5.15243
rfingers 7.12502
rthumb 3.84266 -24.7927
lclavicle 8.05311e-015 1.35422e-015
lhumerus -31.7166 12.9824 82.1683
lradius 24.6657
lwrist 4.58548
lhand -17.602 15.6981
lfingers 7.12502
lthumb 8.65445 45.5007
rfemur -11.1131 0.349498 21.6396
rtibia 31.381
rfoot -25.5862 -9.13491
rtoes 20.1523
lfemur -15.8218 -3.1074 -18.0423
ltibia 26.5703
lfoot -12.0793 -20.159
ltoes -12.3582
